<?xml version="1.0" standalone="no"?>
<!DOCTYPE svg PUBLIC "-//W3C//DTD SVG 20010904//EN"
 "http://www.w3.org/TR/2001/REC-SVG-20010904/DTD/svg10.dtd">
<svg version="1.0" xmlns="http://www.w3.org/2000/svg"
 width="1024.000000pt" height="1024.000000pt" viewBox="0 0 1024.000000 1024.000000"
 preserveAspectRatio="xMidYMid meet">

<g transform="translate(0.000000,1024.000000) scale(0.100000,-0.100000)"
fill="#000000" stroke="none">
<path d="M4865 9054 c-152 -11 -416 -46 -522 -69 -552 -122 -1105 -383 -1528
-721 -139 -111 -459 -429 -557 -554 -257 -327 -368 -510 -543 -900 -144 -321
-252 -717 -307 -1130 -21 -153 -17 -753 5 -910 48 -337 106 -548 249 -908 97
-245 269 -550 447 -792 140 -190 463 -531 631 -664 96 -76 421 -294 520 -348
123 -68 385 -196 465 -228 120 -48 216 -82 220 -78 2 2 -49 23 -113 46 -215
79 -555 256 -787 409 -253 167 -354 250 -545 442 -311 314 -491 560 -702 961
-128 243 -263 618 -317 885 -51 254 -65 413 -65 735 0 181 5 352 13 420 42
379 163 823 319 1175 130 295 250 502 419 724 43 57 87 116 98 131 78 104 281
317 415 434 305 266 546 418 970 613 268 123 604 222 889 263 436 61 859 50
1256 -35 446 -96 871 -280 1273 -551 158 -107 239 -171 391 -308 111 -100 299
-299 391 -416 19 -24 46 -58 60 -75 192 -228 398 -603 554 -1005 14 -36 25
-59 26 -52 0 13 -33 100 -108 282 -91 223 -288 570 -426 750 -311 406 -635
702 -1036 946 -462 282 -923 446 -1430 509 -123 15 -507 27 -625 19z"/>
<path d="M4750 8990 c-153 -14 -302 -40 -473 -81 -92 -23 -166 -43 -164 -45 2
-2 60 9 128 25 278 66 494 91 804 91 486 0 904 -83 1335 -267 118 -51 358
-171 378 -190 7 -7 18 -13 23 -13 5 0 28 -12 52 -27 131 -83 152 -97 157 -103
3 -4 20 -15 38 -24 36 -18 55 -33 110 -83 19 -18 39 -33 44 -33 5 0 22 -14 38
-30 17 -17 30 -28 30 -24 0 4 9 -3 20 -16 11 -13 20 -20 20 -17 0 3 12 -5 26
-20 27 -27 27 -37 0 -27 -9 3 -13 10 -10 15 3 5 -2 9 -10 9 -9 0 -21 9 -28 20
-7 11 -18 20 -24 20 -6 0 -21 12 -35 26 -13 14 -37 33 -53 41 -16 8 -40 26
-54 38 -14 13 -36 29 -51 37 -14 7 -28 16 -31 19 -25 28 -424 269 -446 269 -3
0 -46 20 -96 45 -50 25 -95 45 -99 45 -5 0 -28 9 -52 19 -91 42 -389 135 -527
165 -304 67 -583 90 -890 76 -466 -22 -808 -102 -1225 -286 -431 -189 -779
-428 -1115 -764 -215 -215 -350 -390 -545 -705 -267 -434 -460 -1028 -515
-1585 -13 -143 -5 -684 14 -810 30 -207 110 -557 141 -616 19 -38 19 -68 0
-34 -14 23 -71 193 -79 236 -3 10 -11 51 -20 89 -73 335 -81 420 -81 830 0
336 3 384 24 525 39 266 110 533 207 789 24 63 42 116 40 118 -6 6 -66 -146
-112 -284 -63 -192 -129 -462 -154 -629 -31 -215 -43 -519 -31 -754 22 -407
79 -687 217 -1056 187 -505 486 -950 920 -1375 317 -309 861 -634 1324 -789
252 -85 480 -138 710 -167 189 -23 627 -23 802 0 166 22 384 62 476 88 39 11
77 17 82 14 6 -3 10 -2 10 3 0 8 16 14 88 28 70 14 348 116 417 153 19 10 31
22 27 26 -4 5 -2 5 5 1 6 -3 37 7 67 23 80 44 84 46 158 80 36 17 77 42 90 56
12 14 31 25 41 25 9 0 17 5 17 12 0 6 3 9 6 5 8 -7 104 52 104 64 0 6 5 7 10
4 6 -3 10 -1 10 4 0 6 6 10 13 9 6 -2 11 4 9 12 -2 8 0 12 4 8 9 -10 63 22 75
45 5 9 16 17 23 17 7 0 27 15 44 32 36 38 54 54 65 56 16 3 56 40 50 46 -3 3
1 6 11 6 10 0 14 5 10 12 -4 6 -3 8 3 5 19 -12 246 198 355 327 147 175 149
178 228 289 39 53 70 101 70 106 0 5 3 11 8 13 13 5 106 149 164 253 212 382
388 899 432 1275 51 427 46 718 -19 1155 -60 399 -243 888 -492 1315 -125 214
-177 288 -321 460 -616 737 -1436 1180 -2362 1276 -143 14 -514 17 -660 4z
m641 -120 c719 -72 1454 -405 1958 -886 263 -251 398 -409 579 -679 292 -434
486 -946 571 -1507 62 -406 41 -955 -50 -1311 -11 -44 -18 -81 -16 -84 6 -5
53 190 72 297 72 413 65 927 -20 1330 -45 217 -65 295 -102 399 -9 24 -17 51
-18 60 -1 9 -5 25 -10 36 -24 58 -45 117 -45 128 0 20 25 -35 50 -109 13 -38
27 -78 31 -89 4 -11 17 -54 29 -95 12 -41 24 -82 27 -90 4 -8 6 -18 5 -22 -1
-4 5 -25 13 -48 23 -66 74 -349 92 -519 25 -235 23 -616 -5 -842 -23 -192 -37
-265 -82 -439 -152 -586 -466 -1161 -850 -1555 -284 -293 -530 -486 -860 -676
-157 -91 -415 -206 -585 -262 -399 -131 -753 -188 -1160 -189 -431 0 -691 46
-1160 204 -33 12 -94 36 -135 56 -219 101 -278 130 -284 140 -3 6 11 2 31 -9
382 -195 852 -330 1253 -360 168 -12 527 -6 640 11 35 5 14 6 -60 1 -188 -10
-568 -6 -675 8 -215 27 -560 112 -761 186 -133 49 -408 186 -574 285 -342 204
-601 422 -863 725 -218 253 -356 453 -479 691 -108 210 -157 331 -243 600
-127 399 -171 753 -146 1169 35 568 144 990 380 1465 254 512 576 911 1021
1266 375 299 951 565 1435 663 74 15 258 41 355 50 127 12 523 12 641 1z
m2010 -819 c18 -22 37 -37 43 -34 5 4 6 1 1 -6 -5 -9 -14 -6 -34 11 -14 13
-27 26 -29 31 -2 4 -9 4 -15 0 -6 -4 -8 0 -4 10 4 10 0 17 -11 20 -15 4 -15 5
-1 6 9 0 31 -17 50 -38z m87 -81 c17 -16 27 -30 24 -31 -4 0 3 -4 16 -9 12 -5
22 -17 21 -27 0 -11 -3 -13 -6 -5 -2 6 -10 9 -16 5 -7 -3 -9 -3 -5 1 7 8 -60
76 -75 76 -5 0 -5 5 -2 10 9 14 10 13 43 -20z m109 -115 c0 -8 -4 -12 -9 -9
-4 3 -8 9 -8 15 0 5 4 9 8 9 5 0 9 -7 9 -15z m158 -175 c10 -11 16 -20 13 -20
-3 0 -13 9 -23 20 -10 11 -16 20 -13 20 3 0 13 -9 23 -20z m53 -85 c-3 -3 -9
2 -12 12 -6 14 -5 15 5 6 7 -7 10 -15 7 -18z m33 -35 c5 0 9 -5 9 -11 0 -8 -5
-8 -15 1 -8 7 -14 20 -14 29 1 13 2 13 6 -1 2 -10 9 -18 14 -18z m149 -216 c0
-8 -19 -13 -24 -6 -3 5 1 9 9 9 8 0 15 -2 15 -3z m63 -136 c6 -22 5 -22 -8 -4
-17 22 -20 40 -6 32 5 -3 11 -16 14 -28z m37 -58 c0 -5 -5 -10 -11 -10 -5 0
-7 5 -4 10 3 6 8 10 11 10 2 0 4 -4 4 -10z m7 -42 c-3 -8 -6 -5 -6 6 -1 11 2
17 5 13 3 -3 4 -12 1 -19z m33 -39 c0 -6 -4 -7 -10 -4 -5 3 -10 11 -10 16 0 6
5 7 10 4 6 -3 10 -11 10 -16z m23 -51 c6 -22 5 -22 -8 -4 -17 22 -20 40 -6 32
5 -3 11 -16 14 -28z m21 -44 c9 -24 2 -26 -12 -4 -7 11 -8 20 -3 20 5 0 12 -7
15 -16z m85 -184 c11 -24 11 -24 -3 -6 -9 11 -16 24 -16 30 0 12 5 7 19 -24z
m34 -75 c9 -25 14 -45 12 -45 -6 0 -35 69 -35 81 0 20 9 6 23 -36z m-6577
-2692 c-3 -3 -8 3 -11 13 -4 10 -11 27 -16 36 -5 10 -9 23 -9 30 1 7 10 -7 21
-30 11 -24 18 -46 15 -49z m48 -118 c5 -19 4 -26 -2 -20 -5 6 -12 26 -16 45
-7 41 8 21 18 -25z m62 -127 c8 -16 10 -28 5 -28 -8 0 -14 12 -39 75 -6 16 17
-17 34 -47z m27 -58 c3 -11 3 -20 1 -20 -2 0 -8 9 -14 20 -6 11 -7 20 -2 20 6
0 12 -9 15 -20z m26 -60 c11 -24 11 -24 -3 -6 -9 11 -16 24 -16 30 0 12 5 7
19 -24z m201 -336 c0 -3 -7 -1 -15 6 -8 7 -15 17 -15 22 0 5 7 3 15 -6 8 -8
15 -18 15 -22z m130 -165 c0 -5 -4 -9 -10 -9 -5 0 -10 7 -10 16 0 8 5 12 10 9
6 -3 10 -10 10 -16z m520 -561 c0 -6 -6 -5 -15 2 -8 7 -15 14 -15 16 0 2 7 1
15 -2 8 -4 15 -11 15 -16z m112 -87 l33 -33 -32 19 c-18 10 -33 24 -33 31 0 7
-4 11 -9 7 -5 -3 -12 -1 -15 4 -14 22 25 2 56 -28z m88 -73 c0 -6 -6 -5 -15 2
-8 7 -15 14 -15 16 0 2 7 1 15 -2 8 -4 15 -11 15 -16z m42 -16 c2 -4 18 -18
36 -31 18 -13 31 -26 28 -28 -3 -3 -18 5 -34 18 -16 13 -38 29 -48 36 -16 10
-17 12 -2 12 9 1 18 -3 20 -7z m311 -208 c29 -15 54 -31 55 -35 2 -5 8 -7 12
-4 5 3 18 -3 28 -13 11 -11 26 -22 33 -25 10 -4 9 -6 -3 -6 -9 -1 -23 5 -30
13 -8 7 -24 17 -36 20 -12 4 -22 12 -22 17 0 5 -4 9 -9 9 -5 0 -29 11 -52 25
-58 33 -42 32 24 -1z"/>
<path d="M5132 8727 c-12 -14 -62 -180 -62 -205 0 -30 9 -5 34 88 24 89 39
120 51 108 3 -3 -5 -46 -20 -96 -14 -50 -25 -100 -25 -111 0 -39 -36 -50 -155
-47 -141 4 -145 4 -145 16 0 5 54 11 128 13 l127 3 -132 2 -133 2 0 -24 c0
-29 30 -55 133 -116 81 -47 88 -60 67 -114 -17 -46 -1 -27 21 24 23 54 39 64
39 27 0 -27 -68 -169 -99 -207 -19 -23 -21 -23 -21 -5 -1 18 -2 17 -15 -5 -38
-67 7 -67 109 0 43 28 82 47 88 44 7 -4 8 -2 4 4 -4 7 0 12 10 12 9 0 22 8 29
17 11 15 22 9 111 -53 125 -88 118 -84 133 -75 10 7 4 32 -28 117 -62 167 -63
152 19 203 93 58 161 118 154 136 -5 11 -35 15 -142 17 l-135 3 -39 104 c-21
57 -43 110 -49 117 -14 18 -43 18 -57 1z m353 -247 c-3 -6 -50 -10 -106 -10
-59 0 -99 4 -99 10 0 6 42 10 106 10 67 0 103 -4 99 -10z"/>
<path d="M4027 8453 c-4 -3 -7 -49 -7 -101 0 -53 3 -92 7 -88 4 3 6 46 4 94
-2 72 0 85 11 74 17 -17 21 -171 5 -193 -12 -16 -103 -40 -157 -41 -51 -2 -28
-22 51 -44 l74 -21 3 -86 c3 -104 10 -107 76 -41 27 27 51 42 57 38 8 -4 9 -3
5 5 -15 23 26 23 104 -2 50 -15 83 -21 86 -15 4 6 -17 43 -45 84 -28 41 -51
76 -51 80 0 3 19 27 41 52 43 49 77 108 67 117 -3 3 -18 3 -33 -1 -18 -4 -23
-9 -14 -14 20 -13 -103 -70 -148 -69 l-38 0 40 19 c35 16 37 19 15 19 -19 1
-39 19 -79 71 -54 70 -62 76 -74 63z m56 -276 c3 -8 -3 -14 -14 -14 -11 -1
-19 5 -19 13 0 18 26 19 33 1z m-24 -96 c1 -34 -3 -62 -9 -66 -11 -7 -13 84
-2 113 7 21 9 14 11 -47z"/>
<path d="M6295 8370 c3 -5 -3 -28 -15 -52 -19 -40 -20 -70 -4 -130 3 -11 22
-22 47 -28 53 -14 99 -32 94 -37 -8 -8 -111 20 -125 34 -8 8 -20 12 -27 9 -8
-3 -16 2 -19 10 -3 9 -10 12 -16 9 -5 -3 -10 1 -10 9 0 9 -4 16 -10 16 -5 0
-10 -4 -10 -8 0 -15 -81 -4 -137 20 -15 6 -30 12 -33 12 -3 1 -14 7 -25 13
-38 22 -10 21 69 -3 89 -27 96 -28 96 -15 0 8 -154 51 -185 51 -29 0 -15 -36
40 -98 54 -63 62 -79 48 -98 -5 -5 4 3 19 18 33 34 49 18 21 -20 -38 -52 -163
-143 -137 -100 4 7 3 8 -4 4 -16 -9 -15 -33 0 -38 6 -2 32 -1 57 4 25 5 65 11
88 14 24 4 40 11 37 16 -3 5 2 4 12 -3 11 -6 38 -38 61 -70 29 -39 50 -59 63
-59 20 0 21 4 14 85 -6 78 -5 85 11 85 10 0 49 14 87 32 59 28 68 36 68 59 0
29 -23 43 -87 55 -68 12 -68 12 -65 118 4 84 2 96 -13 96 -9 0 -13 -4 -10 -10z"/>
<path d="M6241 8244 c0 -11 3 -14 6 -6 3 7 2 16 -1 19 -3 4 -6 -2 -5 -13z"/>
<path d="M4972 8185 c-17 -37 -14 -45 4 -12 9 16 14 31 11 33 -2 2 -9 -7 -15
-21z"/>
<path d="M4840 7929 c-52 -5 -104 -10 -115 -11 -11 -2 120 -3 290 -3 281 0
322 -2 440 -23 210 -38 383 -89 610 -179 104 -41 213 -100 256 -140 14 -13 29
-20 34 -16 4 5 5 2 1 -5 -6 -9 -18 -4 -47 19 -21 17 -39 27 -39 23 0 -4 -8 0
-17 8 -32 28 -289 139 -355 153 -18 4 -39 11 -48 15 -63 33 -343 93 -511 110
-117 12 -462 15 -549 5 -465 -53 -837 -185 -1165 -413 -44 -31 -82 -59 -85
-62 -3 -3 -32 -25 -65 -50 -82 -62 -235 -210 -298 -289 -159 -197 -194 -245
-249 -339 -62 -105 -78 -125 -78 -97 0 9 -4 13 -10 10 -5 -3 -10 -17 -10 -30
0 -17 7 -26 23 -30 44 -11 73 10 104 78 47 99 112 191 236 332 192 219 366
364 607 507 252 149 559 256 872 305 160 25 595 25 758 0 248 -38 495 -114
705 -217 280 -138 478 -289 733 -564 134 -144 202 -234 297 -396 l78 -131 41
3 c52 4 56 22 21 91 -38 73 -203 319 -269 402 -78 96 -252 271 -366 367 -131
110 -343 251 -475 314 -168 81 -499 188 -680 219 -237 41 -467 52 -675 34z
m1544 -396 c4 -5 11 -8 15 -8 4 0 15 -8 25 -17 26 -26 5 -22 -34 7 -19 14 -29
25 -24 25 6 0 14 -3 18 -7z m86 -47 c0 -2 -7 -7 -16 -10 -8 -3 -12 -2 -9 4 6
10 25 14 25 6z m45 -46 c3 -5 1 -10 -4 -10 -6 0 -11 5 -11 10 0 6 2 10 4 10 3
0 8 -4 11 -10z m76 -56 c9 -11 2 -9 -18 6 -18 13 -33 25 -33 27 0 8 38 -17 51
-33z m69 -49 c19 -22 8 -25 -12 -3 -10 10 -14 18 -9 18 5 0 14 -7 21 -15z m40
-40 c11 -13 10 -14 -4 -9 -9 3 -16 10 -16 15 0 13 6 11 20 -6z m74 -70 c13
-19 13 -23 2 -19 -8 3 -16 14 -19 25 -7 25 -3 24 17 -6z m171 -175 c-3 -6 1
-13 9 -16 9 -3 13 -10 10 -16 -3 -5 -12 -1 -19 9 -12 16 -11 33 1 33 3 0 2 -5
-1 -10z"/>
<path d="M3169 7905 c-4 -72 -3 -83 3 -77 4 4 8 23 10 42 l4 35 8 -38 c12 -55
-12 -79 -76 -76 -61 4 -64 -11 -7 -32 43 -16 44 -17 49 -69 l5 -53 48 37 c38
29 56 36 92 36 25 0 45 3 45 6 0 4 -14 22 -31 41 l-31 35 31 32 c37 38 41 61
9 52 -13 -3 -30 -6 -38 -7 -10 0 -9 -3 4 -8 18 -7 16 -9 -12 -19 -19 -6 -32
-7 -32 -1 0 5 5 9 10 9 6 0 10 4 10 10 0 5 -6 7 -13 4 -8 -3 -26 10 -41 31
-32 41 -46 44 -47 10z m25 -177 c-8 -27 -12 -33 -19 -27 -7 8 7 49 17 49 5 0
6 -10 2 -22z"/>
<path d="M4653 7903 c9 -2 25 -2 35 0 9 3 1 5 -18 5 -19 0 -27 -2 -17 -5z"/>
<path d="M4588 7893 c6 -2 18 -2 25 0 6 3 1 5 -13 5 -14 0 -19 -2 -12 -5z"/>
<path d="M4528 7883 c6 -2 18 -2 25 0 6 3 1 5 -13 5 -14 0 -19 -2 -12 -5z"/>
<path d="M4478 7873 c7 -3 16 -2 19 1 4 3 -2 6 -13 5 -11 0 -14 -3 -6 -6z"/>
<path d="M4438 7863 c7 -3 16 -2 19 1 4 3 -2 6 -13 5 -11 0 -14 -3 -6 -6z"/>
<path d="M7031 7698 c-18 -36 -30 -47 -52 -50 -18 -3 -34 1 -41 9 -6 8 -20 19
-30 24 -17 9 -18 8 -10 -8 6 -10 20 -28 31 -40 29 -31 27 -39 -19 -59 -54 -24
-51 -38 6 -29 43 6 49 4 80 -26 19 -18 35 -31 37 -28 1 2 7 18 13 34 6 21 24
38 59 57 l49 26 -47 23 c-44 21 -46 25 -49 68 l-3 46 -24 -47z"/>
<path d="M5250 7254 c-126 -24 -179 -37 -218 -54 -56 -25 -51 -36 8 -15 66 23
72 17 9 -9 -31 -12 -87 -43 -125 -68 -38 -25 -82 -53 -99 -61 -16 -9 -57 -42
-90 -73 -55 -52 -57 -56 -30 -50 17 4 44 18 62 32 17 13 39 24 48 24 9 0 13 5
10 10 -3 6 3 10 15 10 12 0 19 4 15 9 -3 5 10 14 29 21 19 6 40 19 48 28 11
15 10 15 -17 -1 l-30 -18 29 26 c22 21 31 24 37 13 7 -10 9 -10 9 2 0 20 56
54 65 40 4 -6 11 -7 17 -4 7 4 6 9 -2 14 -8 5 3 8 24 7 21 -1 41 4 45 11 4 7
23 14 42 16 19 2 38 4 42 5 5 0 6 5 3 10 -3 5 0 8 7 8 6 -1 43 3 81 7 120 15
305 -23 411 -85 63 -36 113 -78 120 -100 4 -11 9 -18 12 -16 2 3 -4 25 -15 50
-30 67 -137 142 -272 189 -54 19 -232 33 -290 22z m283 -39 c66 -23 53 -29
-24 -10 -35 8 -118 15 -184 16 -92 2 -110 4 -75 10 70 12 229 2 283 -16z
m-346 -1 c-3 -3 -12 -4 -19 -1 -8 3 -5 6 6 6 11 1 17 -2 13 -5z"/>
<path d="M2588 7205 c4 -40 1 -46 -23 -57 -26 -12 -30 -11 -100 18 -17 7 -15
3 8 -25 15 -18 27 -40 27 -49 0 -13 5 -11 20 8 13 16 20 20 19 10 0 -21 -26
-53 -37 -46 -9 5 -36 -43 -28 -51 2 -2 23 5 46 17 45 23 68 20 95 -10 31 -34
45 -26 39 23 -6 41 -4 45 32 75 21 17 36 33 33 35 -2 2 -24 8 -49 13 -39 8
-46 13 -56 44 -16 50 -30 47 -26 -5z"/>
<path d="M4790 7155 c-111 -14 -251 -57 -330 -102 -68 -39 -178 -156 -208
-222 -35 -76 -35 -163 1 -241 14 -30 33 -64 42 -75 12 -14 11 -9 -4 17 -11 21
-23 53 -26 72 -8 41 10 133 36 190 23 49 64 107 71 100 3 -3 18 9 34 26 16 16
33 30 38 30 5 0 17 10 27 22 11 11 19 16 19 10 0 -7 12 -2 26 11 14 12 29 22
32 22 4 1 23 11 42 23 37 23 121 51 155 51 44 0 69 7 73 19 11 33 -153 -1
-273 -58 -116 -55 -198 -128 -258 -230 -15 -25 -27 -41 -27 -36 0 4 16 34 35
65 40 67 131 156 195 193 67 39 180 76 251 83 95 9 169 25 169 36 0 5 -3 9 -7
8 -5 -1 -55 -7 -113 -14z"/>
<path d="M4752 7060 c-18 -17 -29 -30 -24 -30 5 0 21 14 37 30 37 38 30 38
-13 0z"/>
<path d="M6018 7009 c9 -161 -50 -251 -220 -333 -51 -25 -124 -54 -163 -64
-38 -11 -83 -26 -100 -33 -28 -12 -29 -13 -7 -17 12 -2 20 -8 17 -13 -4 -5 3
-9 13 -9 21 0 133 -60 167 -89 43 -37 59 -44 31 -14 -28 32 -135 103 -154 103
-5 0 -15 6 -21 14 -9 11 -8 15 5 20 24 9 42 6 19 -4 -40 -17 17 -11 95 11 149
41 278 131 330 229 20 37 19 196 -1 240 l-16 35 5 -76z m-98 -300 c-39 -33
-158 -94 -205 -104 -16 -4 6 9 49 29 44 19 102 51 130 70 63 43 72 45 26 5z"/>
<path d="M7645 6996 c0 -30 -5 -60 -12 -67 -12 -12 -18 -11 -112 17 -9 3 1
-10 22 -29 35 -32 38 -38 32 -71 -8 -39 -4 -42 43 -25 27 9 37 8 68 -12 l37
-23 -6 46 c-6 41 -3 48 23 73 38 36 38 45 0 45 -31 0 -70 30 -70 53 0 7 -6 21
-12 30 -11 15 -13 9 -13 -37z m-38 -137 c-15 -24 -21 -16 -13 18 6 20 10 23
16 13 5 -7 3 -21 -3 -31z"/>
<path d="M5503 6653 c9 -2 23 -2 30 0 6 3 -1 5 -18 5 -16 0 -22 -2 -12 -5z"/>
<path d="M3995 6625 c9 -43 50 -109 92 -150 123 -119 327 -194 413 -151 44 22
63 21 52 -1 -5 -10 -12 -63 -15 -118 l-6 -100 18 115 c10 63 22 128 26 144 l8
30 -32 -24 c-63 -44 -168 -36 -286 23 -124 61 -216 139 -252 212 -18 36 -23
42 -18 20z"/>
<path d="M5338 6643 c7 -3 16 -2 19 1 4 3 -2 6 -13 5 -11 0 -14 -3 -6 -6z"/>
<path d="M5438 6643 c7 -3 16 -2 19 1 4 3 -2 6 -13 5 -11 0 -14 -3 -6 -6z"/>
<path d="M4895 6526 c-19 -14 -13 -15 77 -16 53 0 103 -3 112 -6 9 -3 16 -2
16 4 0 15 -27 22 -110 28 -59 5 -79 3 -95 -10z"/>
<path d="M5695 6364 c-172 -21 -226 -29 -327 -49 -64 -13 -145 -33 -180 -43
-103 -32 -303 -115 -433 -180 -66 -32 -144 -69 -172 -82 -29 -12 -50 -27 -46
-32 9 -16 117 -1 170 22 25 11 50 17 56 13 6 -3 7 -1 3 5 -4 7 -2 12 4 12 10
0 112 45 165 73 18 9 18 8 7 -6 -12 -14 -11 -15 12 -4 13 6 21 14 16 17 -4 3
9 13 31 22 22 9 36 12 33 6 -4 -6 7 0 24 12 17 12 37 20 46 17 8 -3 18 -1 22
5 5 7 2 8 -6 3 -9 -6 -11 -4 -5 4 4 8 17 10 32 6 17 -4 23 -2 18 6 -5 8 -1 9
15 4 13 -4 20 -3 17 2 -14 22 290 79 512 96 161 13 213 32 76 28 -231 -5 -499
-51 -660 -111 -55 -21 -158 -66 -230 -100 -179 -85 -284 -130 -303 -129 -10 0
-1 6 18 13 19 7 91 41 159 75 135 68 286 134 396 174 134 48 438 97 599 97 53
0 77 3 70 10 -11 11 -94 19 -139 14z"/>
<path d="M4998 6113 c7 -3 16 -2 19 1 4 3 -2 6 -13 5 -11 0 -14 -3 -6 -6z"/>
<path d="M5648 6093 c6 -2 18 -2 25 0 6 3 1 5 -13 5 -14 0 -19 -2 -12 -5z"/>
<path d="M5300 6019 c-117 -7 -227 -26 -235 -39 -11 -18 33 -19 121 -5 141 23
661 23 808 1 60 -9 111 -14 114 -12 2 3 -8 12 -22 21 -17 11 -62 20 -137 26
-155 12 -512 17 -649 8z"/>
<path d="M4953 5863 c-97 -2 -163 -7 -163 -13 0 -13 21 -12 275 1 159 8 222 8
271 -1 35 -7 66 -15 68 -19 2 -3 -64 -6 -147 -6 -84 0 -219 -2 -302 -4 -153
-4 -229 4 -190 20 19 7 18 8 -2 8 -38 1 -30 -43 12 -67 19 -12 37 -32 41 -46
3 -13 4 -218 2 -455 -2 -262 1 -421 6 -408 5 12 12 209 17 437 4 228 7 416 8
418 1 2 5 0 11 -3 9 -6 5 -679 -5 -805 -6 -76 -22 -115 -51 -129 -33 -14 -77
-14 -92 1 -9 9 -12 3 -12 -30 l0 -41 258 -3 c141 -2 260 -1 264 2 4 3 5 22 2
42 -6 35 -7 36 -62 40 -78 7 -82 15 -82 172 0 72 3 140 6 152 5 19 15 22 107
27 156 9 299 56 355 116 101 109 109 329 17 468 -71 107 -138 134 -323 131
-70 -1 -200 -4 -289 -5z m295 -155 c52 -55 78 -204 53 -312 -7 -26 -6 -35 1
-28 5 5 15 45 20 89 15 110 22 120 26 32 4 -96 -24 -177 -72 -214 -34 -26
-124 -45 -166 -35 l-25 6 25 7 c14 4 41 7 60 8 30 1 28 3 -17 11 -49 9 -53 11
-59 44 -4 20 -4 86 0 147 3 62 6 146 7 187 1 41 4 65 6 53 2 -13 8 -23 13 -23
4 0 6 9 3 19 -4 16 -1 19 16 14 13 -3 21 -1 21 7 0 8 9 11 25 8 13 -3 22 -1
19 3 -13 21 15 6 44 -23z"/>
<path d="M2210 5851 c-28 -7 -20 -9 45 -10 44 -1 100 -7 123 -14 42 -13 40
-13 -60 -13 -231 2 -401 -103 -479 -294 -39 -98 -53 -185 -47 -310 5 -99 4
-102 -7 -55 -18 71 -18 229 0 299 19 73 13 85 -9 19 -24 -71 -36 -225 -24
-308 34 -245 191 -419 424 -471 85 -18 291 -16 400 6 l61 12 7 101 c20 303 20
286 3 293 -19 7 -44 -5 -29 -15 6 -4 0 -36 -17 -89 -41 -123 -107 -183 -220
-203 -64 -12 -151 -5 -151 12 0 5 28 10 63 10 l62 1 -57 9 c-97 14 -141 47
-178 133 -56 131 -50 416 12 603 11 35 27 68 35 74 11 10 12 9 7 -5 -11 -29
14 -17 36 18 11 19 26 37 33 40 7 3 1 3 -13 0 -34 -9 -23 0 23 20 23 9 35 11
31 4 -5 -8 -1 -9 10 -5 10 4 20 7 22 7 3 0 3 4 0 8 -9 15 60 13 105 -3 78 -28
121 -84 163 -215 20 -61 23 -65 51 -65 l30 0 -1 183 c0 197 -1 202 -53 202
-23 0 -23 -1 -7 -13 17 -13 17 -14 -7 -29 -13 -9 -32 -24 -41 -33 -9 -9 -16
-12 -16 -6 0 6 -8 11 -18 11 -10 0 -26 6 -36 13 -15 11 -11 12 26 9 56 -5 49
0 -44 37 -82 33 -192 47 -258 32z m247 -57 c-3 -3 -12 -4 -19 -1 -8 3 -5 6 6
6 11 1 17 -2 13 -5z m-640 -746 c-3 -8 -6 -5 -6 6 -1 11 2 17 5 13 3 -3 4 -12
1 -19z"/>
<path d="M4155 5851 c-30 -5 -11 -9 80 -15 166 -10 217 -11 241 -6 39 9 29
-15 -11 -28 -34 -11 -48 -11 -102 4 -119 32 -289 4 -388 -64 -27 -18 -51 -48
-73 -92 -30 -59 -33 -72 -30 -134 3 -63 3 -67 -9 -40 -15 36 -17 123 -2 161 5
15 6 24 1 18 -19 -20 -32 -80 -32 -144 1 -119 44 -193 137 -236 160 -74 243
-119 295 -160 67 -52 87 -80 104 -143 7 -26 13 -39 13 -29 2 31 21 18 21 -15
0 -39 -62 -102 -117 -118 -57 -16 -128 -23 -158 -16 -41 10 -19 26 38 27 l52
2 -62 7 c-109 12 -175 81 -202 209 -13 60 -25 81 -48 81 -11 0 -13 -5 -8 -17
10 -22 17 -250 10 -281 -3 -13 -10 -20 -17 -16 -7 5 -8 39 -4 110 8 111 0 206
-15 183 -5 -8 -9 -85 -9 -171 0 -154 1 -158 23 -173 14 -9 88 -23 182 -35 136
-17 171 -18 254 -8 53 6 104 11 113 12 9 0 14 4 11 10 -4 5 5 6 21 2 19 -5 28
-2 33 9 3 9 12 14 20 11 8 -3 12 -2 9 3 -3 5 4 11 17 15 21 5 116 86 101 86
-3 0 -1 6 5 14 22 26 16 195 -9 270 -40 120 -106 184 -284 277 -173 90 -215
128 -230 209 -4 26 -3 30 3 15 7 -14 10 -15 11 -5 1 26 37 60 69 66 17 4 29 9
27 13 -5 8 20 12 85 14 72 2 130 -54 144 -138 13 -85 14 -85 45 -85 23 0 31 5
36 26 8 32 0 301 -9 310 -4 4 -31 2 -59 -4 -43 -10 -68 -9 -131 3 -82 16 -124
17 -192 6z m276 -518 c13 -17 13 -17 -6 -3 -11 8 -22 16 -24 17 -2 2 0 3 6 3
6 0 17 -8 24 -17z"/>
<path d="M5923 5843 c-210 -3 -223 -4 -223 -22 0 -11 12 -24 31 -31 62 -26 60
-15 57 -498 -2 -242 0 -438 3 -436 15 9 18 84 20 409 2 355 8 480 19 435 7
-28 2 -786 -6 -836 -2 -18 -14 -44 -25 -58 -24 -30 -86 -46 -100 -25 -6 10 -9
2 -9 -23 0 -20 4 -39 8 -42 4 -2 107 -6 227 -7 l220 -2 -1 27 c-1 14 -2 33 -2
41 -1 8 -20 22 -42 31 l-40 16 1 142 c0 77 4 280 8 450 7 270 10 310 25 318 9
5 16 15 16 23 0 7 14 16 30 20 20 4 32 14 36 30 7 27 -2 46 -19 43 -7 -2 -112
-4 -234 -5z m57 -23 c78 0 100 -3 87 -11 -22 -13 -254 -6 -312 9 -35 10 -30
11 40 7 44 -2 127 -5 185 -5z"/>
<path d="M4088 5833 c7 -3 16 -2 19 1 4 3 -2 6 -13 5 -11 0 -14 -3 -6 -6z"/>
<path d="M3210 5820 l-115 -6 112 -2 c115 -2 147 -7 137 -23 -6 -10 -213 -13
-238 -3 -9 3 -16 13 -16 21 0 8 -4 11 -10 8 -17 -10 -11 -43 10 -63 l21 -19
-60 -184 c-156 -481 -220 -683 -217 -686 2 -2 15 29 29 69 32 91 217 672 217
683 0 16 53 125 61 125 14 0 11 -23 -10 -76 -19 -51 -128 -391 -176 -549 -46
-153 -95 -289 -114 -313 -20 -27 -101 -44 -101 -21 0 9 -3 10 -11 2 -5 -5 -7
-21 -4 -35 6 -22 14 -26 58 -32 29 -3 107 -6 175 -6 l122 0 0 28 c0 40 -10 48
-63 56 -28 4 -51 14 -54 22 -3 8 0 43 8 77 11 53 14 59 21 37 6 -19 7 -16 3
13 -3 31 -1 37 9 28 11 -9 15 -5 19 16 3 16 15 39 27 53 20 23 29 25 132 29
65 2 114 -1 120 -7 5 -5 25 -68 43 -138 28 -109 34 -125 42 -105 5 14 12 20
16 15 9 -16 -16 -57 -46 -74 -22 -12 -30 -13 -48 -2 -19 12 -20 11 -17 -15 l3
-28 243 -3 242 -2 0 25 c0 31 -16 65 -31 65 -6 0 -23 9 -39 20 -21 15 -32 36
-45 87 -60 232 -224 797 -254 875 -11 30 -40 49 -68 46 -10 -1 -70 -5 -133 -8z
m55 -357 c7 -29 10 -55 5 -58 -9 -5 -31 96 -29 134 l2 26 4 -25 c2 -14 10 -49
18 -77z m-15 -166 c13 -60 29 -115 37 -123 27 -27 3 -34 -118 -34 -181 0 -153
19 51 33 25 2 -1 4 -57 5 -56 1 -104 6 -107 11 -3 5 2 26 11 47 9 22 16 43 15
47 -2 5 2 6 8 2 5 -3 13 2 17 12 3 10 14 36 23 58 10 22 20 49 23 60 3 11 14
47 23 80 l18 60 17 -75 c9 -41 27 -124 39 -183z m27 61 c-3 -7 -5 -2 -5 12 0
14 2 19 5 13 2 -7 2 -19 0 -25z m20 -90 c-3 -8 -6 -5 -6 6 -1 11 2 17 5 13 3
-3 4 -12 1 -19z"/>
<path d="M6592 5808 c-17 -17 -15 -23 14 -55 22 -24 25 -34 21 -73 l-5 -45 25
55 c15 30 28 50 30 44 6 -18 -11 -75 -105 -349 -155 -451 -207 -587 -231 -609
-27 -25 -88 -30 -100 -8 -8 14 -10 10 -11 -20 0 -20 4 -39 8 -42 5 -3 83 -6
173 -7 l164 -1 0 39 c0 36 -2 39 -42 51 -38 12 -43 18 -43 43 0 15 6 48 14 71
7 24 19 65 26 91 7 26 15 45 18 43 2 -3 -1 -19 -7 -37 -16 -45 -5 -49 13 -5 8
20 23 39 33 43 15 6 12 9 -12 14 -16 4 34 7 111 8 103 1 144 -2 151 -11 6 -7
15 -33 22 -58 43 -169 49 -186 58 -161 8 20 11 21 16 8 9 -24 -8 -64 -32 -76
-26 -15 -64 -14 -79 1 -9 9 -12 5 -12 -19 0 -18 3 -34 8 -37 4 -2 116 -8 248
-12 l241 -7 5 24 c8 43 -6 72 -37 82 -47 15 -61 33 -80 100 -9 34 -63 222
-120 417 -57 195 -110 380 -119 410 -27 97 -33 100 -204 100 -102 0 -152 -4
-160 -12z m283 -19 c8 -8 -146 -16 -210 -11 -36 3 -65 12 -65 21 0 10 262 1
275 -10z m-109 -430 c25 -101 46 -191 47 -199 2 -12 -16 -16 -93 -18 -173 -5
-192 18 -22 28 l107 7 -95 1 c-109 2 -127 11 -105 51 8 14 25 63 38 109 13 45
26 80 29 77 8 -8 31 92 30 129 -1 56 16 6 64 -185z m23 111 c0 -23 -1 -23 -9
-5 -5 11 -9 31 -9 45 0 23 1 23 9 5 5 -11 9 -31 9 -45z m18 -102 c-3 -7 -5 -2
-5 12 0 14 2 19 5 13 2 -7 2 -19 0 -25z m20 -80 c-3 -8 -6 -5 -6 6 -1 11 2 17
5 13 3 -3 4 -12 1 -19z"/>
<path d="M7355 5799 c-6 -18 -2 -27 15 -39 12 -8 33 -25 47 -38 l24 -22 -3
-430 c-2 -237 -2 -430 -1 -430 18 0 25 188 33 805 1 57 3 65 11 45 11 -26 4
-718 -7 -818 -8 -63 -43 -112 -80 -112 -13 0 -24 5 -24 12 0 9 -3 9 -11 1 -6
-6 -9 -23 -7 -39 3 -25 8 -30 43 -36 22 -4 93 -7 158 -7 l117 -1 0 35 c0 30
-6 38 -40 60 -21 13 -44 33 -50 44 -6 13 -10 131 -10 323 l1 303 37 -42 c20
-23 75 -104 121 -180 162 -266 195 -319 257 -418 35 -55 65 -104 67 -110 2 -6
36 -10 78 -10 l74 0 12 435 c7 239 16 466 20 505 8 67 9 70 51 98 33 23 42 34
42 58 l0 29 -152 -1 c-162 -1 -164 -16 -3 -18 64 -1 86 -4 78 -12 -17 -17
-221 -8 -233 11 -7 12 -10 11 -16 -5 -5 -13 -1 -23 15 -34 13 -9 39 -30 58
-46 l34 -30 8 -115 c4 -63 6 -169 4 -235 -3 -77 -1 -115 5 -105 6 8 12 106 15
218 3 112 8 206 11 209 3 4 6 2 7 -3 12 -136 -3 -457 -22 -481 -17 -20 -36
-16 -51 11 -7 14 -48 80 -90 148 -42 68 -125 204 -185 303 l-109 180 -159 1
c-135 1 -149 0 -90 -7 39 -5 89 -7 111 -4 47 7 94 -2 94 -17 0 -6 -51 -9 -136
-6 -117 3 -137 5 -149 21 -13 17 -14 17 -20 -4z"/>
<path d="M8265 5710 c-3 -5 -2 -10 4 -10 5 0 13 5 16 10 3 6 2 10 -4 10 -5 0
-13 -4 -16 -10z"/>
<path d="M6576 5524 c-20 -59 -34 -109 -32 -111 2 -2 20 44 40 103 20 59 34
109 32 111 -2 2 -20 -44 -40 -103z"/>
<path d="M2157 5613 c-4 -3 -7 -11 -7 -17 0 -6 5 -5 12 2 6 6 9 14 7 17 -3 3
-9 2 -12 -2z"/>
<path d="M6521 5363 c-1 -6 -4 -20 -7 -30 -5 -17 -5 -17 6 0 6 10 9 23 6 30
-3 9 -5 9 -5 0z"/>
<path d="M6471 5219 c-6 -18 -9 -34 -7 -36 2 -2 9 10 15 28 6 18 9 34 7 36 -2
2 -9 -10 -15 -28z"/>
<path d="M6437 5123 c-9 -25 -16 -48 -14 -50 2 -2 12 17 22 42 9 26 15 48 13
50 -2 2 -12 -17 -21 -42z"/>
<path d="M5100 5129 c0 -5 5 -7 10 -4 6 3 10 8 10 11 0 2 -4 4 -10 4 -5 0 -10
-5 -10 -11z"/>
<path d="M2574 5034 c-8 -20 -13 -38 -11 -40 2 -2 11 14 20 36 19 50 12 53 -9
4z"/>
<path d="M6406 5045 c-3 -9 -6 -22 -5 -28 0 -7 5 -1 10 12 5 13 8 26 5 28 -2
2 -6 -3 -10 -12z"/>
<path d="M6376 4954 c-9 -26 -14 -49 -12 -51 2 -2 11 17 20 43 9 26 14 49 12
51 -2 2 -11 -17 -20 -43z"/>
<path d="M2546 4965 c-9 -26 -7 -32 5 -12 6 10 9 21 6 23 -2 3 -7 -2 -11 -11z"/>
<path d="M6351 4883 c-1 -6 -4 -20 -7 -30 -5 -17 -5 -17 6 0 6 10 9 23 6 30
-3 9 -5 9 -5 0z"/>
<path d="M4462 4603 c1 -5 -1 -34 -6 -65 -10 -74 8 -132 48 -162 55 -41 62
-40 16 1 l-45 41 1 96 c1 53 -2 96 -7 96 -5 0 -8 -3 -7 -7z"/>
<path d="M5148 4559 c-10 -5 -18 -7 -18 -4 0 3 -23 -6 -51 -20 -70 -36 -379
-100 -522 -108 -9 -1 -16 -6 -14 -12 7 -19 224 3 342 35 39 11 86 22 106 25
21 3 42 12 48 19 7 8 21 12 33 8 16 -4 19 -2 13 8 -6 10 -4 12 9 7 10 -4 15
-3 11 3 -3 6 0 10 7 10 7 0 24 9 38 20 27 21 26 26 -2 9z"/>
<path d="M5280 4540 c-21 -7 -21 -8 -5 -9 11 0 27 4 35 9 18 11 5 11 -30 0z"/>
<path d="M5133 4490 c-34 -14 -28 -21 7 -9 17 6 30 13 30 15 0 6 -12 4 -37 -6z"/>
<path d="M5060 4460 c-8 -5 -10 -10 -5 -10 6 0 17 5 25 10 8 5 11 10 5 10 -5
0 -17 -5 -25 -10z"/>
<path d="M4940 4410 c-9 -6 -10 -10 -3 -10 6 0 15 5 18 10 8 12 4 12 -15 0z"/>
<path d="M3871 4387 c-2 -18 44 -99 87 -152 91 -114 218 -176 400 -196 141
-16 302 2 597 66 212 45 288 57 386 58 86 1 102 -2 153 -27 54 -27 106 -78
106 -106 0 -10 3 -11 10 -4 16 16 -2 53 -48 100 -56 58 -122 77 -238 71 -49
-3 -96 -7 -104 -10 -14 -5 -47 -10 -145 -21 -22 -2 -53 -9 -70 -16 -38 -15
-175 -46 -240 -55 -206 -27 -385 -25 -505 7 -41 11 -85 22 -97 25 -13 3 -23
10 -23 15 0 5 -4 7 -9 4 -5 -3 -28 11 -51 32 -55 48 -107 82 -96 62 4 -8 -11
5 -34 30 -23 25 -50 63 -60 85 -10 22 -19 37 -19 32z m159 -192 c20 -24 6 -28
-15 -5 -10 11 -13 20 -8 20 6 0 16 -7 23 -15z"/>
<path d="M8416 4364 c-4 -14 -5 -28 -3 -31 3 -2 8 8 11 23 4 14 5 28 3 31 -3
2 -8 -8 -11 -23z"/>
<path d="M4835 4370 c-3 -6 1 -7 9 -4 18 7 21 14 7 14 -6 0 -13 -4 -16 -10z"/>
<path d="M5941 4355 c45 -53 82 -129 93 -191 3 -15 10 -52 17 -83 11 -54 5
-177 -10 -210 -49 -104 -83 -159 -130 -207 -239 -243 -658 -317 -1001 -177
-36 14 -72 31 -80 37 -8 6 -31 20 -50 30 -19 11 -43 26 -52 35 -32 30 -47 41
-57 41 -5 0 -17 10 -25 22 -11 15 -16 18 -16 8 -1 -8 -8 -3 -16 13 -8 15 -19
27 -24 27 -5 0 -20 19 -34 43 -33 54 -33 41 -1 -24 29 -56 142 -172 162 -165
7 3 12 0 10 -6 -1 -6 23 -26 53 -44 200 -121 529 -157 771 -84 35 11 65 18 67
16 4 -4 -68 -28 -138 -47 -25 -6 -94 -15 -155 -19 l-110 -9 120 4 c131 5 237
27 332 70 32 15 72 32 88 39 45 20 154 104 211 163 28 29 48 53 45 53 -3 0 -1
4 4 8 22 16 57 95 62 140 15 138 15 184 -2 254 -23 96 -85 226 -127 263 l-33
30 26 -30z m22 -695 c-10 -11 -19 -20 -21 -20 -1 0 2 9 8 20 6 11 15 20 20 20
6 0 2 -9 -7 -20z m-33 -33 c0 -2 -10 -12 -22 -23 l-23 -19 19 23 c18 21 26 27
26 19z m-90 -82 c-7 -8 -17 -15 -23 -15 -6 0 -2 7 9 15 25 19 30 19 14 0z
m-155 -85 c-3 -5 -12 -10 -18 -10 -7 0 -6 4 3 10 19 12 23 12 15 0z"/>
<path d="M4790 4360 l-25 -8 28 -1 c15 -1 27 4 27 9 0 6 -1 10 -2 9 -2 -1 -14
-5 -28 -9z"/>
<path d="M8401 4304 c0 -11 3 -14 6 -6 3 7 2 16 -1 19 -3 4 -6 -2 -5 -13z"/>
<path d="M8391 4264 c0 -11 3 -14 6 -6 3 7 2 16 -1 19 -3 4 -6 -2 -5 -13z"/>
<path d="M2862 4138 c4 -29 -16 -34 -29 -6 -10 20 -12 21 -18 6 -9 -21 43
-119 124 -233 192 -273 483 -543 776 -720 243 -147 463 -240 722 -306 259 -66
316 -73 618 -73 284 -1 410 11 594 55 403 97 852 335 1141 605 198 185 262
262 446 536 68 102 70 138 7 138 -13 0 -13 -3 -3 -15 11 -13 -1 -36 -73 -144
-277 -416 -669 -736 -1157 -943 -250 -106 -471 -157 -780 -178 -290 -21 -527
3 -847 84 -77 19 -307 106 -311 118 -2 4 -15 8 -28 8 -13 0 -24 4 -24 9 0 5
-12 12 -27 16 -15 3 -30 10 -33 13 -3 4 -29 18 -57 31 -29 14 -53 28 -53 33 0
5 -4 7 -9 3 -5 -3 -12 -1 -15 4 -8 12 18 8 35 -5 19 -14 106 -54 119 -54 5 0
10 -4 10 -10 0 -5 3 -9 8 -8 4 1 32 -10 62 -24 138 -63 309 -117 485 -153 189
-38 336 -49 565 -42 189 6 387 24 376 34 -2 3 -44 0 -93 -6 -48 -6 -167 -14
-263 -17 -264 -10 -484 15 -728 82 -150 41 -216 67 -397 155 -435 211 -794
524 -1045 912 -72 111 -105 143 -98 95z m68 -132 c0 -12 -5 -7 -19 24 -11 24
-11 24 3 6 9 -11 16 -24 16 -30z m135 -176 c3 -5 1 -10 -4 -10 -6 0 -11 5 -11
10 0 6 2 10 4 10 3 0 8 -4 11 -10z m235 -258 c0 -1 -9 2 -20 8 -11 6 -20 15
-20 20 0 6 9 2 20 -7 11 -10 20 -19 20 -21z m126 -104 l19 -23 -25 20 c-14 11
-27 21 -29 22 -2 2 0 3 6 3 5 0 18 -10 29 -22z m198 -160 c-5 -8 -44 22 -44
35 0 4 11 0 24 -10 13 -10 22 -21 20 -25z m75 -45 c2 -2 -3 -3 -11 -3 -9 0
-19 7 -22 16 -6 15 -4 15 11 3 10 -7 20 -15 22 -16z m41 -23 c8 -5 11 -10 5
-10 -5 0 -17 5 -25 10 -8 5 -10 10 -5 10 6 0 17 -5 25 -10z m60 -35 c11 -13
10 -14 -4 -9 -9 3 -16 10 -16 15 0 13 6 11 20 -6z"/>
<path d="M2476 3948 c-4 -35 -8 -73 -9 -85 -1 -11 -5 -19 -8 -17 -4 2 -9 -3
-13 -11 -4 -11 -21 -15 -59 -15 -68 0 -118 10 -111 21 3 5 1 9 -5 9 -30 0 -17
-29 39 -85 l62 -63 -23 -65 c-13 -36 -20 -69 -17 -73 4 -3 29 6 55 22 26 15
50 27 53 26 3 0 15 6 28 14 22 14 26 12 90 -35 63 -48 67 -49 70 -28 1 12 -7
49 -18 82 l-21 60 30 25 c17 14 47 38 67 54 33 28 35 31 18 43 -10 7 -44 13
-78 13 -34 0 -66 4 -72 8 -6 4 -21 42 -34 85 -13 42 -26 77 -30 77 -4 0 -11
-28 -14 -62z m193 -134 c2 -2 -26 -4 -63 -4 -42 0 -65 4 -61 10 6 9 113 3 124
-6z m-290 -179 c-13 -19 -25 -32 -27 -30 -2 2 7 27 20 57 18 43 24 48 26 30 2
-13 -7 -39 -19 -57z"/>
<path d="M2451 3958 c-18 -56 -30 -121 -21 -112 10 10 41 136 36 142 -2 2 -9
-12 -15 -30z"/>
<path d="M7631 3888 c-1 -29 -9 -68 -19 -88 -15 -31 -22 -36 -67 -41 -33 -4
-62 -1 -84 7 -53 22 -51 6 7 -45 28 -25 52 -54 52 -65 0 -10 -8 -40 -17 -67
-10 -26 -15 -50 -13 -53 8 -8 94 19 123 38 l27 18 44 -36 c25 -20 50 -36 56
-36 13 0 11 32 -5 106 -7 30 -3 35 48 73 31 22 58 45 62 51 9 14 -38 30 -90
30 -58 0 -75 8 -75 34 0 31 -29 126 -39 126 -4 0 -9 -24 -10 -52z m158 -133
c2 -3 -16 -5 -42 -5 -25 0 -48 4 -52 9 -5 10 84 5 94 -4z m-234 -129 c-9 -19
-23 -40 -31 -47 -12 -9 -12 -6 -2 22 15 44 41 85 46 71 2 -6 -4 -27 -13 -46z"/>
<path d="M5650 3909 c0 -5 5 -7 10 -4 6 3 10 8 10 11 0 2 -4 4 -10 4 -5 0 -10
-5 -10 -11z"/>
<path d="M7596 3854 c-21 -62 -13 -69 9 -9 10 25 15 48 13 51 -3 3 -13 -16
-22 -42z"/>
<path d="M2328 3843 c18 -2 45 -2 60 0 15 2 0 4 -33 4 -33 0 -45 -2 -27 -4z"/>
<path d="M5575 3820 c-3 -5 -1 -10 4 -10 6 0 11 5 11 10 0 6 -2 10 -4 10 -3 0
-8 -4 -11 -10z"/>
<path d="M7493 3783 c15 -2 37 -2 50 0 12 2 0 4 -28 4 -27 0 -38 -2 -22 -4z"/>
<path d="M5465 3730 c-3 -6 1 -7 9 -4 18 7 21 14 7 14 -6 0 -13 -4 -16 -10z"/>
<path d="M5375 3690 c-3 -6 1 -7 9 -4 18 7 21 14 7 14 -6 0 -13 -4 -16 -10z"/>
<path d="M5158 3663 c6 -2 18 -2 25 0 6 3 1 5 -13 5 -14 0 -19 -2 -12 -5z"/>
<path d="M5852 3648 c-7 -7 -12 -16 -12 -21 0 -5 7 -1 16 8 9 9 14 18 12 20
-2 3 -10 -1 -16 -7z"/>
<path d="M2990 3480 c8 -15 8 -20 -1 -20 -7 0 -75 -66 -152 -146 -116 -120
-145 -145 -164 -141 -34 6 -29 -17 12 -61 l35 -37 68 73 67 74 25 -27 c22 -23
23 -29 12 -57 l-11 -31 24 23 c43 40 30 -3 -16 -57 -51 -58 -59 -64 -81 -57
-30 9 -20 -20 20 -59 21 -20 43 -37 49 -37 6 0 22 15 36 33 14 17 39 48 56 67
17 19 36 51 41 71 8 28 19 40 51 54 77 35 135 114 125 169 -6 31 -63 94 -144
159 -41 33 -68 37 -52 7z m58 -151 c-5 -35 4 -37 25 -6 12 16 16 18 16 6 2
-46 -62 -119 -103 -119 -19 0 -58 43 -58 63 1 5 20 30 44 57 36 40 46 47 61
38 14 -7 18 -18 15 -39z"/>
<path d="M7110 3468 c-1 -39 -179 -214 -207 -204 -30 12 -34 -7 -7 -35 33 -34
43 -36 77 -9 14 11 32 20 40 20 8 0 72 -61 142 -135 70 -74 132 -135 137 -135
17 0 78 67 78 86 0 9 -59 77 -131 150 l-131 132 31 31 c42 41 38 86 -9 111
-17 9 -20 7 -20 -12z"/>
<path d="M5138 3373 c6 -2 18 -2 25 0 6 3 1 5 -13 5 -14 0 -19 -2 -12 -5z"/>
<path d="M3381 3144 c11 -13 11 -17 -3 -25 -9 -5 -43 -50 -77 -101 -86 -131
-145 -214 -166 -238 -20 -22 -37 -18 -29 8 3 9 -1 6 -10 -8 -13 -23 -13 -27 6
-47 26 -28 162 -123 176 -123 13 0 42 45 42 64 0 8 -20 29 -45 47 -25 18 -45
37 -45 43 0 13 48 86 57 86 3 0 27 -16 54 -36 55 -40 67 -38 90 18 12 30 11
32 -32 69 l-44 37 25 29 c14 15 28 32 32 37 4 5 32 -7 62 -27 31 -21 60 -37
65 -37 5 0 20 16 32 37 22 36 22 37 3 50 -173 124 -225 155 -193 117z"/>
<path d="M6727 3134 c-3 -3 -3 -12 -1 -19 3 -8 -6 -21 -21 -31 -22 -15 -28
-15 -35 -3 -7 11 -10 10 -15 -4 -5 -12 16 -46 69 -114 75 -95 92 -130 38 -81
-44 41 -179 138 -191 138 -6 0 -11 -9 -11 -20 0 -11 -12 -27 -26 -37 -22 -14
-29 -14 -46 -4 -19 12 -20 11 -16 -16 5 -31 232 -371 254 -380 18 -7 98 38
101 57 2 8 -26 54 -62 103 -36 48 -61 87 -57 87 5 0 50 -29 100 -65 51 -36
100 -65 108 -65 19 0 114 67 114 80 0 5 -46 68 -103 142 -56 73 -120 157 -142
186 -39 52 -46 58 -58 46z m103 -304 c0 -5 -5 -10 -11 -10 -5 0 -7 5 -4 10 3
6 8 10 11 10 2 0 4 -4 4 -10z"/>
<path d="M5660 2960 c-20 -6 -21 -8 -5 -8 11 0 29 3 40 8 25 11 -1 11 -35 0z"/>
<path d="M5608 2943 c7 -3 16 -2 19 1 4 3 -2 6 -13 5 -11 0 -14 -3 -6 -6z"/>
<path d="M5558 2933 c7 -3 16 -2 19 1 4 3 -2 6 -13 5 -11 0 -14 -3 -6 -6z"/>
<path d="M5508 2923 c6 -2 18 -2 25 0 6 3 1 5 -13 5 -14 0 -19 -2 -12 -5z"/>
<path d="M3808 2878 c43 -14 41 -26 -5 -26 -30 0 -44 -7 -70 -36 -19 -21 -33
-46 -33 -61 0 -17 -4 -24 -11 -19 -7 4 -9 23 -6 48 5 39 5 40 -8 16 -25 -44
-18 -87 30 -174 25 -46 45 -93 45 -105 0 -26 8 -27 27 -3 10 13 10 8 -2 -22
-21 -52 -33 -66 -60 -66 -39 0 -51 25 -37 76 16 59 16 63 -10 73 -44 16 -74
23 -60 13 10 -7 6 -16 -18 -41 -39 -38 -42 -38 -34 -3 5 21 4 25 -6 15 -7 -6
-13 -30 -14 -52 -1 -51 28 -84 109 -122 103 -50 173 -32 215 56 33 68 25 138
-23 208 -20 29 -37 65 -37 78 0 34 22 62 46 57 14 -3 19 -12 19 -38 0 -31 5
-37 40 -53 52 -25 69 -14 73 47 3 43 0 51 -32 81 -35 33 -112 66 -150 64 -15
-1 -12 -4 12 -11z"/>
<path d="M6220 2839 c-12 -9 -12 -10 3 -5 40 13 9 -20 -46 -49 -49 -26 -59
-28 -67 -15 -11 16 -13 9 -11 -30 4 -50 81 -454 89 -462 10 -10 66 6 98 26 20
14 22 20 13 48 -15 53 -11 63 29 81 l37 17 31 -37 31 -37 49 31 c27 16 50 36
52 45 1 8 -26 52 -61 99 -35 46 -97 131 -138 188 -41 58 -78 106 -84 108 -5 1
-17 -2 -25 -8z m53 -236 c28 -38 58 -68 65 -66 24 9 12 -16 -19 -38 -31 -22
-32 -22 -46 -3 -12 16 -27 58 -60 169 -7 26 -2 21 60 -62z m-84 -157 c4 -31 5
-53 1 -49 -9 10 -24 120 -15 111 4 -3 10 -31 14 -62z"/>
<path d="M4160 2729 c0 -8 47 -26 150 -59 52 -16 57 -19 25 -15 -22 2 -67 13
-100 24 -42 14 -63 17 -72 9 -9 -7 -14 -6 -19 6 -8 22 -24 10 -24 -19 0 -17 9
-27 40 -39 26 -10 40 -22 40 -33 0 -10 -23 -97 -50 -193 -32 -115 -45 -178
-39 -186 15 -18 98 -39 110 -27 9 9 87 271 105 356 7 30 13 31 61 18 37 -11
50 -1 59 48 8 36 -5 51 -43 51 -12 0 -72 15 -132 34 -61 18 -111 30 -111 25z
m51 -240 c-16 -52 -33 -110 -36 -129 -10 -48 -32 -100 -43 -100 -11 0 68 293
89 330 26 48 21 -5 -10 -101z"/>
<path d="M5757 2663 c17 -2 36 -10 43 -17 8 -11 1 -14 -37 -13 -27 0 -77 -10
-113 -22 -61 -22 -65 -22 -77 -5 -12 16 -13 15 -13 -11 0 -35 99 -447 111
-459 5 -6 30 -4 64 3 65 15 64 11 31 139 l-24 92 33 0 c42 0 49 -10 70 -97 9
-40 23 -77 30 -83 14 -12 101 5 111 21 6 11 -23 124 -43 164 -8 16 -26 42 -39
56 -21 22 -23 30 -14 53 5 15 10 48 10 73 0 38 -5 50 -34 79 -31 31 -39 34
-87 32 -35 -1 -43 -3 -22 -5z m17 -137 l9 -39 13 29 12 29 1 -37 c1 -40 -26
-78 -54 -78 -19 0 -43 46 -51 100 l-7 41 34 -3 c30 -3 34 -7 43 -42z"/>
<path d="M5658 2643 c7 -3 16 -2 19 1 4 3 -2 6 -13 5 -11 0 -14 -3 -6 -6z"/>
<path d="M4680 2601 c14 -5 36 -10 50 -10 26 -1 58 -17 50 -24 -3 -3 -28 -1
-56 2 -45 6 -53 4 -64 -12 -11 -18 -98 -266 -122 -347 -10 -37 -24 -57 -33
-49 -3 3 25 97 61 208 36 112 63 205 61 208 -5 4 -147 -417 -147 -436 0 -14
28 -27 76 -35 l41 -7 17 45 c17 45 19 46 62 46 46 0 50 -6 45 -62 -3 -22 24
-35 87 -44 l52 -7 0 34 c0 72 -20 425 -26 451 -6 32 -13 35 -105 42 -49 4 -65
3 -49 -3z m49 -258 c0 -41 5 -73 11 -73 6 0 10 8 10 17 0 9 2 14 5 11 4 -3 3
-17 -1 -32 -5 -20 -12 -26 -34 -26 -39 0 -60 9 -60 26 0 8 12 58 27 111 24 84
29 93 34 68 4 -17 7 -63 8 -102z m38 -5 c-2 -13 -4 -3 -4 22 0 25 2 35 4 23 2
-13 2 -33 0 -45z"/>
<path d="M5305 2591 c-3 -5 5 -11 17 -13 22 -4 22 -5 -4 -16 l-28 -11 7 -174
c5 -158 4 -177 -13 -205 -24 -42 -60 -43 -75 -4 -6 15 -13 95 -15 177 -3 83
-7 169 -10 193 l-5 42 -47 -1 c-30 -1 -37 -4 -19 -6 34 -5 35 -19 2 -27 l-24
-6 4 -128 c3 -70 7 -149 10 -177 3 -40 2 -45 -6 -26 -5 14 -12 90 -14 170 -5
152 -11 195 -23 187 -4 -2 -5 -91 -2 -198 6 -217 14 -247 80 -280 39 -20 124
-24 167 -7 82 31 98 90 84 310 -11 177 -19 209 -55 209 -14 0 -27 -4 -31 -9z"/>
<path d="M5254 2440 c3 -80 6 -172 6 -205 0 -42 3 -56 11 -48 16 16 8 368 -10
385 -11 11 -13 -9 -7 -132z"/>
<path d="M5958 1873 c7 -3 16 -2 19 1 4 3 -2 6 -13 5 -11 0 -14 -3 -6 -6z"/>
<path d="M5838 1843 c7 -3 16 -2 19 1 4 3 -2 6 -13 5 -11 0 -14 -3 -6 -6z"/>
<path d="M5798 1833 c7 -3 16 -2 19 1 4 3 -2 6 -13 5 -11 0 -14 -3 -6 -6z"/>
<path d="M5748 1823 c7 -3 16 -2 19 1 4 3 -2 6 -13 5 -11 0 -14 -3 -6 -6z"/>
<path d="M5698 1813 c6 -2 18 -2 25 0 6 3 1 5 -13 5 -14 0 -19 -2 -12 -5z"/>
<path d="M5643 1803 c9 -2 23 -2 30 0 6 3 -1 5 -18 5 -16 0 -22 -2 -12 -5z"/>
<path d="M5583 1793 c9 -2 23 -2 30 0 6 3 -1 5 -18 5 -16 0 -22 -2 -12 -5z"/>
<path d="M5523 1783 c9 -2 23 -2 30 0 6 3 -1 5 -18 5 -16 0 -22 -2 -12 -5z"/>
<path d="M5438 1773 c12 -2 32 -2 45 0 12 2 2 4 -23 4 -25 0 -35 -2 -22 -4z"/>
<path d="M4065 8850 c-13 -6 -15 -9 -5 -9 8 0 22 4 30 9 18 12 2 12 -25 0z"/>
<path d="M8497 6510 c3 -14 12 -41 20 -60 11 -30 12 -31 8 -6 -4 16 -13 43
-20 60 -11 23 -13 25 -8 6z"/>
<path d="M8542 6370 c0 -8 8 -37 18 -65 10 -27 18 -43 18 -35 0 8 -8 38 -18
65 -10 28 -18 43 -18 35z"/>
<path d="M8581 6234 c0 -11 3 -14 6 -6 3 7 2 16 -1 19 -3 4 -6 -2 -5 -13z"/>
<path d="M8591 6194 c0 -11 3 -14 6 -6 3 7 2 16 -1 19 -3 4 -6 -2 -5 -13z"/>
<path d="M8621 6064 c0 -11 3 -14 6 -6 3 7 2 16 -1 19 -3 4 -6 -2 -5 -13z"/>
<path d="M8631 6014 c0 -11 3 -14 6 -6 3 7 2 16 -1 19 -3 4 -6 -2 -5 -13z"/>
<path d="M3970 1740 c8 -5 20 -10 25 -10 6 0 3 5 -5 10 -8 5 -19 10 -25 10 -5
0 -3 -5 5 -10z"/>
<path d="M4065 1710 c11 -5 27 -9 35 -9 9 0 8 4 -5 9 -11 5 -27 9 -35 9 -9 0
-8 -4 5 -9z"/>
<path d="M4160 1684 c25 -7 50 -13 55 -13 18 1 -59 27 -80 28 -11 0 0 -7 25
-15z"/>
<path d="M4248 1663 c7 -3 16 -2 19 1 4 3 -2 6 -13 5 -11 0 -14 -3 -6 -6z"/>
<path d="M4300 1650 c14 -4 34 -8 45 -8 16 0 15 2 -5 8 -14 4 -34 8 -45 8 -16
0 -15 -2 5 -8z"/>
<path d="M4518 1613 c7 -3 16 -2 19 1 4 3 -2 6 -13 5 -11 0 -14 -3 -6 -6z"/>
</g>
</svg>
